<svg width="100" height="49" viewBox="0 0 100 49" fill="none" xmlns="http://www.w3.org/2000/svg">
<g clip-path="url(#clip0_1_238)">
<path d="M40.1759 41.6323C39.9433 41.2139 39.6432 40.9996 39.1677 40.9996C38.6677 40.9996 38.1186 41.3649 38.1186 41.9547C38.1186 42.4793 38.6003 42.7548 38.9922 42.914L39.4412 43.1038C40.3351 43.4753 41.0005 44.0018 41.0005 45.1244C41.0005 46.3449 40.1188 47.2205 38.9922 47.2205C37.9778 47.2205 37.1859 46.4184 37.0512 45.3387L37.8431 45.1611C37.8349 45.8999 38.384 46.4347 39.0595 46.4347C39.7351 46.4347 40.2168 45.8285 40.2168 45.1244C40.2168 44.4019 39.6759 44.0916 39.135 43.8508L38.7024 43.6549C37.986 43.3263 37.3329 42.8895 37.3329 41.9547C37.3329 40.8669 38.235 40.2158 39.184 40.2158C39.8841 40.2158 40.4596 40.5812 40.8005 41.2322L40.1759 41.6323Z" fill="#F9F9F9"/>
<path d="M43.5515 47.0764H42.7678V41.1249H41.2779V40.3575H45.0435V41.1249H43.5515V47.0764Z" fill="#F9F9F9"/>
<path d="M46.3353 40.3583V44.3219C46.3353 45.42 46.6435 46.4343 47.8518 46.4343C49.06 46.4343 49.3682 45.42 49.3682 44.3219V40.3583H50.1519V44.6076C50.1519 46.0874 49.2927 47.2201 47.8518 47.2201C46.4108 47.2201 45.5516 46.0874 45.5516 44.6076V40.3583H46.3353Z" fill="#F9F9F9"/>
<path d="M51.9534 46.3102H52.2289C53.827 46.3102 55.2107 45.6693 55.2107 43.7182C55.2107 41.7568 53.827 41.1241 52.2289 41.1241H51.9534V46.3102ZM51.1696 40.3587H52.4697C54.3964 40.3587 55.9945 41.4445 55.9945 43.6814C55.9945 45.9714 54.427 47.0756 52.4432 47.0756H51.1696V40.3587Z" fill="#F9F9F9"/>
<path d="M57.5382 47.0774H56.7544V40.3585H57.5382V47.0774Z" fill="#F9F9F9"/>
<path d="M64.0697 43.7171C64.0697 42.2374 63.037 40.9986 61.5614 40.9986C60.0878 40.9986 59.055 42.2374 59.055 43.7171C59.055 45.2499 60.2041 46.4357 61.5614 46.4357C62.9206 46.4357 64.0697 45.2499 64.0697 43.7171ZM64.8535 43.7171C64.8535 45.7132 63.3799 47.2174 61.5614 47.2174C59.7449 47.2174 58.2713 45.7132 58.2713 43.7171C58.2713 41.7925 59.7633 40.2169 61.5614 40.2169C63.3615 40.2169 64.8535 41.7925 64.8535 43.7171Z" fill="#F9F9F9"/>
<path d="M73.7454 43.6906V43.958C73.7454 45.803 72.529 47.2195 70.7717 47.2195C69.0124 47.2195 67.5959 45.5969 67.5959 43.7355C67.5959 41.8027 69.0471 40.2149 70.8533 40.2149C71.8289 40.2149 72.7964 40.6863 73.4127 41.517L72.8637 42.0783C72.4127 41.419 71.6534 40.9823 70.888 40.9823C69.4798 40.9823 68.3797 42.2028 68.3797 43.707C68.3797 45.1173 69.4634 46.4521 70.8207 46.4521C71.7963 46.4521 72.8453 45.554 72.878 44.456H71.2534V43.6906H73.7454Z" fill="#F9F9F9"/>
<path d="M78.2298 43.0666V40.3582H79.0135V47.0751H78.2298V43.8524H75.2397V47.0751H74.456V40.3582H75.2397V43.0666H78.2298Z" fill="#F9F9F9"/>
<path d="M80.9072 47.0774H80.1235V40.3585H80.9072V47.0774Z" fill="#F9F9F9"/>
<path d="M82.7976 46.3277H83.3977C84.1222 46.3277 84.8794 46.0971 84.8794 45.1419C84.8794 44.199 83.9814 44.001 83.2814 44.001H82.7976V46.3277ZM82.7976 43.3357H82.9977C83.7406 43.3357 84.3467 43.1744 84.3467 42.2111C84.3467 41.2661 83.7467 41.1069 83.014 41.1069H82.7976V43.3357ZM82.0139 40.3579H82.7813C83.963 40.3579 85.0795 40.6865 85.0795 42.2029C85.0795 42.6907 84.8305 43.2622 84.4039 43.4765V43.4928C85.1468 43.6377 85.6632 44.4113 85.6632 45.195C85.6632 46.542 84.5896 47.0768 83.4814 47.0768H82.0139V40.3579Z" fill="#F9F9F9"/>
<path d="M87.3233 46.3102H89.2317V47.0756H86.5396V40.3587H87.3233V46.3102Z" fill="#F9F9F9"/>
<path d="M90.5039 47.0774H89.7203V40.3585H90.5039V47.0774Z" fill="#F9F9F9"/>
<path d="M28.4048 35.8812C30.3356 35.124 32.497 33.0585 33.4501 30.2706H28.9028V29.2521H34.7788C34.6645 29.7746 34.342 31.3176 33.0991 33.132C33.6155 33.5729 34.8931 34.6832 36.0565 35.9077L35.2319 36.7976C34.8747 36.3486 34.2379 35.5526 32.5052 33.9362C31.8949 34.6832 30.6785 36.0322 29.009 36.7588L28.4048 35.8812Z" fill="#F9F9F9"/>
<path d="M39.0893 32.0378C39.4648 32.2072 40.1996 32.544 41.118 33.3645C41.8875 32.3093 42.0875 31.3072 42.1671 30.9255H39.1077C38.2403 32.2072 37.4973 32.7583 36.8075 33.1869L36.1523 32.4011C37.681 31.55 38.477 30.4214 39.0791 28.7457L40.1384 28.96C39.971 29.354 39.8669 29.5968 39.6751 29.954H43.3999C43.1713 31.4194 42.4202 35.7116 37.2626 36.9954L36.7034 36.0688C37.2953 35.9647 38.7832 35.7034 40.418 34.1604C39.5444 33.3379 38.7485 32.9359 38.4056 32.7583L39.0893 32.0378Z" fill="#F9F9F9"/>
<path d="M44.0667 35.5724C47.3628 35.2826 48.8589 34.2152 49.9937 30.4863L50.9407 30.9353C49.7508 34.4784 48.2731 36.2174 44.3116 36.6949L44.0667 35.5724ZM50.6325 29.972C50.4325 29.1291 50.2651 28.7474 50.1773 28.5413L50.8876 28.3719C51.1325 28.9127 51.2978 29.5311 51.3591 29.7556L50.6325 29.972ZM49.3569 30.1679C49.2344 29.5311 49.1222 29.1576 48.9446 28.6617L49.663 28.4943C49.8814 29.0556 49.961 29.2985 50.1079 29.9801L49.3569 30.1679ZM46.026 33.2641C45.0116 32.6722 43.9973 32.3191 43.5687 32.1783L43.9687 31.2068C44.2953 31.3068 45.5974 31.7211 46.4281 32.2068L46.026 33.2641ZM46.6995 31.0945C45.8321 30.6251 45.0116 30.3087 44.2585 30.074L44.679 29.0923C45.9974 29.5128 46.6546 29.8311 47.1445 30.074L46.6995 31.0945Z" fill="#F9F9F9"/>
<path d="M60.0955 35.5724C63.3916 35.2826 64.8877 34.2152 66.0225 30.4863L66.9695 30.9353C65.7796 34.4784 64.3019 36.2174 60.3404 36.6949L60.0955 35.5724ZM66.6613 29.972C66.4613 29.1291 66.2939 28.7474 66.2061 28.5413L66.9164 28.3719C67.1613 28.9127 67.3266 29.5311 67.3879 29.7556L66.6613 29.972ZM65.3857 30.1679C65.2632 29.5311 65.151 29.1576 64.9734 28.6617L65.6918 28.4943C65.9102 29.0556 65.9898 29.2985 66.1368 29.9801L65.3857 30.1679ZM62.0548 33.2641C61.0404 32.6722 60.0261 32.3191 59.5975 32.1783L59.9975 31.2068C60.3241 31.3068 61.6262 31.7211 62.4569 32.2068L62.0548 33.2641ZM62.7283 31.0945C61.863 30.6251 61.0404 30.3087 60.2873 30.074L60.7078 29.0923C62.0283 29.5128 62.6834 29.8311 63.1733 30.074L62.7283 31.0945Z" fill="#F9F9F9"/>
<path d="M74.909 29.7189C74.8477 29.3433 74.6804 28.7168 74.5334 28.3616L75.2498 28.2228C75.4151 28.6821 75.4947 28.9617 75.6172 29.5413L74.909 29.7189ZM73.9905 28.2963C74.1497 28.6902 74.2354 29.0086 74.3579 29.5985L74.0946 29.6352V29.6536H74.6192C74.4722 33.7212 72.5578 36.0296 69.2779 36.7806L68.7269 35.7785C70.1351 35.4887 73.0292 34.8703 73.5007 30.6638H67.9656V29.6536H73.5701C73.4925 29.1862 73.4129 28.9066 73.2395 28.4269L73.9905 28.2963Z" fill="#F9F9F9"/>
<path d="M81.948 32.5242C81.948 33.9937 81.6949 35.1428 80.6785 35.9653C79.8846 36.6123 79.0702 36.7776 77.3048 36.9838L76.9823 35.9551C79.2213 35.8061 80.9173 35.4326 80.9173 33.0202V28.9709H81.948V32.5242ZM77.5334 34.2182H76.5211V29.1403H77.5334V34.2182Z" fill="#F9F9F9"/>
<path d="M87.5784 28.522C87.509 28.8302 87.4294 29.167 87.2192 29.7099H90.9888V30.6344H88.0845V31.9631H90.7705V32.8877H88.0845V34.2265H90.7705V35.1429H88.0845V37.239H87.1416V30.6344H86.8089C86.2232 31.7855 85.7517 32.3182 85.4803 32.6366L84.8843 31.8406C85.8395 30.8508 86.3987 29.3649 86.6089 28.4098L87.5784 28.522ZM83.8107 32.3284H83.7924C83.4964 32.7407 83.2576 32.9734 83.0229 33.1979L82.6208 32.2733C83.5903 31.2998 84.1761 30.2344 84.5618 28.4179L85.4884 28.5873C85.366 29.0363 85.1659 29.8139 84.7353 30.7385V37.239H83.8107V32.3284Z" fill="#F9F9F9"/>
<path d="M93.4797 31.1679H97.7474V29.578H93.4797V31.1679ZM92.6164 28.7004H98.5965V32.0496H92.6164V28.7004ZM96.7045 35.8826H98.5658V33.6661H96.7045V35.8826ZM91.7816 32.8048H95.1819V37.1357H94.343V36.752H92.6164V37.201H91.7816V32.8048ZM92.6164 35.8826H94.3492V33.6661H92.6164V35.8826ZM95.8595 32.8048H99.4087V37.201H98.57V36.752H96.7045V37.201H95.8595V32.8048Z" fill="#F9F9F9"/>
<path d="M51.7658 35.3073C54.4088 33.3867 55.3007 31.6499 55.4395 31.3539L51.7188 31.3498V30.3212H56.0416V28.7558H57.0151V30.3212H58.9969V31.3743H57.0233L57.0253 36.8523H56.0416L56.0436 32.1948C56.0436 32.1948 55.2538 34.1031 52.3393 36.1951L51.7658 35.3073Z" fill="#F9F9F9"/>
<path d="M28.119 38.4731H100V38.5914H28.119" fill="#F9F9F9"/>
<path d="M28.9086 14.2166V14.3125L28.7535 14.3656L28.329 14.3554L27.9045 14.3738L27.882 14.3309L28.078 14.2085C28.3616 14.2615 28.6086 14.1207 28.8678 14.1921L28.9086 14.2166Z" fill="#F9F9F9"/>
<path d="M18.6988 23.6877L18.6253 23.7754L18.4865 23.9591L18.3886 24.0714L18.0947 24.3081L17.7946 24.5061C17.5987 24.6816 17.3293 24.8143 17.0109 24.8653L16.6272 24.9082C16.4068 24.8837 16.1639 24.8837 15.9843 24.7857L15.7884 24.7245C15.5292 24.5898 15.4292 24.4918 15.3312 24.2102L15.323 24.1408H15.3067L15.2904 23.9224L15.2659 23.8611L15.2251 23.3836V23.3121H15.2332L15.2414 22.9631L15.272 22.8937L15.3067 22.8243H15.323L15.3312 22.7121H15.3373L15.3638 22.6223V22.3018L15.3965 22.2406L15.4108 22.161L15.4292 22.0222H15.4455L15.4536 21.9426H15.4618L15.4863 21.8651V21.812H15.5026L15.519 21.7181H15.5332L15.6822 21.4385L15.772 21.3242C15.968 21.2038 16.1374 21.0262 16.4476 21.0099L16.8068 20.8874C17.0027 20.8977 17.1824 20.9487 17.3783 20.9854L17.7865 21.1834L18.0294 21.4467H18.0457L18.0641 21.4997H18.0783L18.1518 21.6385C18.4722 22.2631 18.6151 22.659 18.6743 23.3836L18.6825 23.4611H18.6988V23.6877ZM19.3172 23.704L19.0988 23.5836L19.0335 23.5305L18.9845 23.4856L18.9519 23.3468H18.9335L18.9111 22.9631H18.9029L18.8866 22.8611L18.86 22.7019L18.8294 22.4488H18.8131L18.7886 22.3263H18.7804L18.7478 22.2222L18.7151 22.0998L18.6498 21.9079H18.6335L18.5947 21.8038C18.2865 21.0507 18.1151 20.8834 17.3293 20.6895L17.0844 20.6099C16.8231 20.5997 16.5374 20.6099 16.3027 20.6976C16.1149 20.6772 16.0149 20.7834 15.8863 20.8528L15.5679 21.0793L15.4761 21.2201L15.4536 21.2895L15.3557 21.4201L15.3067 21.4814L15.2822 21.5773H15.272L15.2332 21.6549V21.6814L15.2087 21.7691H15.2006L15.1761 21.8998H15.1597V21.9426L15.1434 22.0998H15.1271L15.1108 22.3018H15.0944L15.0699 22.4141H15.0618L15.0373 22.561H15.0291L15.021 22.6672H15.0046V22.7549H14.9883L15.0046 22.9019L14.8414 23.1733H14.8332L14.8414 23.2611L14.8495 23.2856L15.0046 23.4856H14.9883V23.5489L14.9801 23.7652L15.0046 23.8979L15.0291 24.0367L15.0373 24.0795H15.0536L15.0618 24.1591L15.0944 24.2632L15.1271 24.3326L15.2577 24.5265L15.5332 24.7857L15.7945 24.9959C16.0639 25.0653 16.317 25.2306 16.6435 25.1531C16.8313 25.1266 17.0681 25.1347 17.1905 25.0123L17.4191 24.9694L17.5987 24.9184L17.9804 24.7163L18.2498 24.5143C18.4376 24.4122 18.5274 24.2387 18.6825 24.1142L18.8294 23.9305L18.8866 23.8795L19.2213 23.8367L19.3172 23.704Z" fill="#F9F9F9"/>
<path d="M11.9386 21.3156L11.9631 21.3238H11.955V21.3401H11.9468L11.8897 21.5585H11.8733L11.8488 21.6911H11.8407L11.8162 21.8544H11.808L11.7917 21.9524L11.7672 22.1014H11.7509V22.1789H11.7345L11.6774 22.2932L11.5794 22.232L11.5733 22.1626H11.5876L11.6039 21.9177H11.6202L11.6447 21.8054H11.6529L11.6611 21.7075H11.6774L11.6937 21.5789H11.71L11.7509 21.4462L11.7672 21.3931L11.7999 21.3401V21.3074L11.8162 21.2911L11.8897 21.238L11.9386 21.3156Z" fill="#F9F9F9"/>
<path d="M12.1344 21.8736L12.1425 21.9104L12.1589 21.9961H12.1425L12.118 22.1369L11.9792 22.1777L11.9466 21.9961L11.9792 21.9185L12.1344 21.8736Z" fill="#F9F9F9"/>
<path d="M12.4364 22.0571L12.469 22.1101V22.2489L12.4119 22.2999L12.2812 22.1795L12.2894 22.102L12.3139 22.0815L12.4364 22.0571Z" fill="#F9F9F9"/>
<path d="M12.8926 22.31L12.909 22.4059L12.86 22.4672L12.7232 22.4141L12.6885 22.3263L12.6967 22.2325H12.8192L12.8926 22.31Z" fill="#F9F9F9"/>
<path d="M16.179 23.0684L16.1301 23.0072L16.1137 22.8766L16.1709 22.85L16.1954 22.8766L16.2035 22.9194L16.179 23.0684ZM16.375 22.8419L16.3403 22.6582H16.326L16.3097 22.4582L16.2607 22.3622L16.1301 22.2296C15.8688 22.1439 15.7872 22.3704 15.6749 22.4929L15.6239 22.5623L15.5994 22.65H15.5912V22.7031L15.5667 22.7806H15.5525L15.5361 23.1378L15.5667 23.4603L15.5912 23.5052L15.7708 23.793L16.1137 23.7746L16.2117 23.7134L16.326 23.5052H16.3403L16.3586 23.4093C16.3403 23.199 16.3995 23.0439 16.375 22.8419Z" fill="#F9F9F9"/>
<path d="M9.31289 24.4289L9.34555 24.482L9.40882 24.5779L9.42719 24.6718L9.32922 24.7861L8.86388 24.9086L8.60468 24.7779L8.63529 24.7086H8.64345L8.66999 24.6024H8.68631L8.7006 24.5065L8.7904 24.3922L9.17411 24.3146L9.31289 24.4289Z" fill="#F9F9F9"/>
<path d="M17.7853 27.5163C17.4506 27.5245 17.1342 27.5163 16.8077 27.5163L16.4648 27.4735L16.3995 27.4122L16.4546 27.3857L17.1893 27.4633C17.3934 27.402 17.5894 27.4918 17.7853 27.5V27.5163ZM24.7736 28.3552C24.4736 28.249 24.1225 28.249 23.8347 28.1368C23.5592 28.1082 23.3041 28.0225 23.0041 28.047L22.7122 27.9878L22.4346 27.9347C22.2224 27.8919 21.9938 27.8817 21.7652 27.8653C21.5693 27.7592 21.2917 27.8286 21.1121 27.7265C20.7855 27.7082 20.5345 27.5531 20.2079 27.5939C19.9773 27.5857 19.7916 27.5 19.5466 27.5245C19.3119 27.4551 19.0242 27.4918 18.7894 27.4469L18.3466 27.4122C18.0384 27.3775 17.7118 27.3428 17.3934 27.3775C17.1158 27.3245 16.824 27.2816 16.5117 27.2898L16.1137 27.2285L16.0403 27.3857H16.0239L16.0321 27.4735L16.228 27.7C16.4729 27.7674 16.7587 27.8653 17.0342 27.7878C17.2546 27.7959 17.4669 27.8286 17.6792 27.8041C17.8833 27.8388 18.0955 27.7959 18.2914 27.849L18.6894 27.8817C18.9507 27.9 19.2038 27.8735 19.4568 27.9164C19.6528 27.8653 19.8161 27.9613 20.012 27.9694L20.712 28.0225C20.9508 28.1 21.2345 28.0572 21.4713 28.1184C21.6917 28.1266 21.9121 28.1266 22.1162 28.1796L22.5734 28.2225L22.9551 28.3021L23.298 28.3552C23.5429 28.4409 23.8347 28.4327 24.0817 28.5205L24.5042 28.6062L24.8552 28.5613L24.8715 28.5368L24.7736 28.3552Z" fill="#F9F9F9"/>
<path d="M14.8664 28.5541C15.1113 28.6316 15.4195 28.5704 15.6665 28.6847L16.0155 28.7643L16.2359 28.8419C16.44 28.8419 16.6441 28.9113 16.8543 28.9194L17.0278 29.1133V29.2174C16.7176 29.199 16.4584 29.0766 16.1542 29.0439L15.7624 28.9541C15.297 28.9378 14.9072 28.6847 14.4255 28.7888L14.1398 28.6072L14.1092 28.501L14.4174 28.5174L14.8664 28.5541Z" fill="#F9F9F9"/>
<path d="M24.4153 30.9001C24.203 30.9878 23.9764 30.8919 23.7723 30.8654C23.4764 30.7429 23.1274 30.6653 22.8253 30.5511V30.5429L22.411 30.4735C22.1967 30.3939 21.962 30.3612 21.7232 30.3245L21.3497 30.2102C21.015 30.0612 20.5986 29.9408 20.2496 29.8183C19.9047 29.7653 19.6128 29.6367 19.3026 29.5387L18.9761 29.3918L18.9842 29.3652C19.172 29.3469 19.3189 29.4265 19.4822 29.453C19.719 29.5755 20.0353 29.6081 20.2966 29.6877L20.566 29.7224C20.8027 29.7939 21.0803 29.8183 21.2926 29.9326C21.4967 29.9837 21.6497 30.1143 21.8804 30.1327C22.1579 30.2367 22.4743 30.298 22.7519 30.3939L23.2662 30.498C23.454 30.5511 23.6642 30.5674 23.8377 30.647L24.1071 30.7266L24.4234 30.8552H24.4316L24.4153 30.9001ZM24.8724 30.8837L24.75 30.7429L24.4724 30.5429C24.2928 30.5511 24.1948 30.4286 24.0152 30.447C23.8683 30.3776 23.7458 30.2796 23.5417 30.2898C23.2233 30.1755 22.8417 30.1224 22.4906 30.0531L22.1151 29.8877L21.7008 29.7571L21.3987 29.6367L21.0068 29.5224C20.5496 29.3734 20.0619 29.3203 19.5883 29.1897C19.3843 29.1305 19.1312 29.1469 18.9516 29.053C18.1617 28.9305 17.4351 28.704 16.6698 28.5448C16.5044 28.4407 16.2432 28.457 16.0493 28.3795L15.8615 28.3448C15.6738 28.3019 15.4533 28.2917 15.2737 28.2305L15.0778 28.1978L14.6533 28.0651C14.4512 27.9427 14.1736 28.0488 14.0002 28.1264L13.9695 28.1692L13.994 28.3019L14.2124 28.2141L14.5308 28.3019C14.8165 28.3366 15.0696 28.4162 15.3309 28.4938L15.4452 28.5366L15.7227 28.6407C15.9656 28.6672 16.2126 28.6407 16.4146 28.7366C16.6698 28.7734 16.88 28.8938 17.1494 28.8326L17.2392 28.8938C17.4188 28.9019 17.5576 28.9999 17.6964 29.0611L17.5412 29.1387L17.4188 29.2877L17.4433 29.304C17.6617 29.3816 17.8923 29.4163 18.1188 29.4959C18.3964 29.5387 18.6332 29.6796 18.9271 29.6959C19.3679 29.8449 19.8149 29.949 20.2496 30.098C20.4598 30.1673 20.7293 30.202 20.9252 30.298L21.0966 30.3612C21.315 30.3939 21.464 30.5245 21.6926 30.5347C21.9355 30.6041 22.1804 30.6653 22.4192 30.7429L22.9233 30.8756C23.2417 30.9531 23.5846 31.0144 23.8846 31.1184C24.0969 31.1348 24.2846 31.1103 24.4724 31.1715L24.8724 31.0144V30.8837Z" fill="#F9F9F9"/>
<path d="M8.9132 29.7051L8.93769 29.7929L8.88055 29.8439L8.44786 29.8092L8.4397 29.7051L8.48868 29.6357L8.81524 29.599L8.9132 29.7051Z" fill="#F9F9F9"/>
<path d="M20.8107 32.9147L20.7617 32.8983L20.2882 32.6881L19.8637 32.4697L19.4494 32.2514L18.9841 32.0881C18.7718 31.9901 18.5187 31.937 18.3146 31.8248C18.1024 31.7636 17.9064 31.6942 17.7452 31.5615L17.4023 31.4493C17.2309 31.3799 17.1002 31.2656 16.9125 31.2227L16.6594 31.1349L16.1961 30.9084L15.992 30.7676L16.0491 30.6982C16.3267 30.7267 16.5145 30.9002 16.7982 30.9349L16.9043 30.9696C17.1492 31.0758 17.4268 31.1349 17.6452 31.2737C17.835 31.335 18.037 31.4146 18.2003 31.4921L18.5922 31.6942L18.8289 31.8248C19.0249 31.9023 19.2453 31.9983 19.4065 32.1126L19.7678 32.2697L20.0025 32.3636L20.4923 32.6351L20.8107 32.8698V32.9147ZM21.8618 33.3678L21.619 33.178L21.3638 32.9392L20.8515 32.582C20.6311 32.3922 20.3066 32.3044 20.076 32.1126L19.7576 31.9472L19.6188 31.886L19.4576 31.7881C19.2698 31.7799 19.1963 31.6411 19.0412 31.6064L18.7065 31.4595L18.2656 31.2819L17.884 31.1349L17.5656 31.0064C17.3839 30.8819 17.1492 30.8206 16.937 30.7349C16.7267 30.7084 16.5451 30.6125 16.3492 30.5696L16.3267 30.541L15.8369 30.5247L15.745 30.6288L15.7226 30.7267H15.7144L15.7634 30.9002L16.0083 31.1186C16.3185 31.2329 16.6104 31.3962 16.9227 31.5003L17.3615 31.684C17.5248 31.8166 17.7921 31.833 17.9799 31.9289C18.1452 32.0881 18.4289 32.0758 18.6187 32.2167C18.9187 32.2514 19.08 32.4534 19.3841 32.4881L19.4065 32.5126L19.8066 32.7045L20.1005 32.8187C20.3535 32.8902 20.5821 32.9922 20.7617 33.1494C20.9495 33.1657 21.0965 33.2718 21.2761 33.3147L21.4455 33.4127L21.8292 33.4535L21.872 33.3943L21.8618 33.3678Z" fill="#F9F9F9"/>
<path d="M13.3904 34.8505H13.423L13.472 34.9199C13.6271 34.9995 13.7557 35.1036 13.9435 35.1465L14.1333 35.3118L14.1251 35.4098L14.1088 35.4424L14.2863 35.5485C14.4986 35.5832 14.6374 35.6894 14.8252 35.7302L14.9558 35.8445L15.0211 35.9853L15.0619 36.018L15.0946 36.0976L15.1109 36.2282H15.1272C15.4395 36.5751 15.613 36.8507 15.9171 37.1874L15.9906 37.3181H16.0089C16.2232 37.612 16.6253 37.9304 16.7335 38.2692L16.8233 38.4079C16.9539 38.5916 17.1457 38.8835 17.1988 39.1162L17.2233 39.4366L17.2478 39.5591H17.256L17.2968 39.6305L17.3294 39.8734H17.3437L17.4029 40.0121L17.4356 40.0836C17.4825 40.2632 17.6948 40.3305 17.7621 40.6326L17.7866 40.6857L17.8172 40.8143L17.8356 40.8857L17.8601 41.2429L17.9397 41.4531L17.9907 41.5388L18.0621 41.6368L18.2438 41.7919L18.5132 42.0633L18.552 42.1429L18.5846 42.5001H18.5683L18.5438 42.6205H18.5356L18.5275 42.743H18.5132L18.5193 42.7593H18.5132V42.7777H18.5275L18.5356 43.2655L18.5683 43.7022L18.6091 43.9369L18.6173 44.0431H18.6336V44.088L18.6438 44.2431L18.6581 44.3309H18.6663L18.6581 44.7329L18.7479 44.8533L18.7397 45.0023H18.7234L18.7071 45.1248H18.6908L18.6826 45.1942H18.6744L18.6499 45.3064L18.5601 45.3962L18.4703 45.3513V45.2289H18.4867L18.5132 45.0636L18.5438 44.8982V44.8452H18.5601L18.552 44.7411L18.3479 44.5574L18.3316 44.4533H18.3479L18.3744 44.3553V44.2247H18.3826V44.1206H18.3969L18.3826 43.9635L18.3479 43.8859L18.3234 43.8084L18.2989 43.7716L18.2744 43.6594H18.2581L18.252 43.3716L18.2438 43.1961H18.2581V42.9083H18.2438V42.596H18.2581V42.447H18.2744L18.2254 42.1674H18.2091L18.1785 42.1062L18.0132 41.9409L17.8438 41.7674L17.6784 41.5572L17.6642 41.4796H17.6478L17.6397 41.4L17.6213 41.1918L17.558 41.0245L17.5397 40.8938H17.5254L17.4927 40.702L17.4682 40.6489L17.4356 40.5795L17.3049 40.3367H17.2968L17.256 40.2754L17.1825 40.1346L17.158 40.0917L17.1008 40.0121H17.0845L17.0519 39.9264L17.0192 39.8142L17.011 39.7325H16.9947L16.9702 39.506L16.9539 39.4039L16.9212 39.0631H16.9049L16.8723 38.9753L16.7906 38.81L16.7416 38.7039H16.7335L16.6927 38.6427L16.6212 38.5141H16.6131L16.5702 38.4345C16.3232 38.063 16.26 37.8875 15.8354 37.5528L15.6477 37.3017H15.6415L15.5742 37.1874C15.2966 36.7282 14.9905 36.7323 14.8333 36.2445L14.67 35.9935H14.6558L14.3782 35.8363L13.97 35.6526L13.9598 35.5751H13.9435L13.8945 35.4608C13.6904 35.4608 13.6516 35.2873 13.521 35.2159L13.1618 35.0158L13.0903 34.7893L13.1944 34.7464L13.3904 34.8505Z" fill="#F9F9F9"/>
<path d="M8.79093 42.7085L8.7746 42.98H8.75827L8.75011 43.0575H8.74194L8.71745 43.3535L8.73378 43.3882H8.72561L8.71745 43.7025H8.70112L8.66847 43.8249V43.8515L8.5705 43.8862L8.46437 43.8433L8.39089 43.7025L8.36028 43.6596L8.31742 43.5718L8.2766 43.4576L8.19496 43.3453L8.1868 43.3188L7.99086 43.0494L7.95208 43.0045L7.8684 42.8391L7.86024 42.7616H7.84391L7.77248 42.6391L7.64798 42.6044L7.58267 42.5514L7.49491 42.4289L7.20917 42.186C7.01324 42.1064 6.90711 41.9227 6.62953 41.9513L6.29481 42.0554V42.0799L5.86417 42.0636L5.856 42.037L5.86417 41.9064L6.19889 41.6023L6.36829 41.4696L6.62137 41.2778L6.84996 41.0512L7.1112 40.841L7.3153 40.6941C7.49491 40.6247 7.63369 40.5022 7.82963 40.441L7.99086 40.4675L8.08271 40.5532L8.17047 40.6512L8.21129 40.739L8.30109 40.841L8.3664 40.9206L8.39906 40.9982L8.43988 41.1574H8.45621L8.4909 41.2533L8.52968 41.3635L8.56234 41.4615H8.57866L8.60316 41.5819L8.62765 41.635L8.64397 41.6962L8.70112 42.0452H8.71745L8.74194 42.4738H8.75011L8.79093 42.684L8.7746 42.7085H8.79093ZM8.96237 42.4983L8.94604 42.2901L8.90522 42.0636H8.91338L8.88073 41.8533H8.8644L8.84807 41.688H8.83174L8.81542 41.6105L8.79093 41.3839L8.75827 41.2941H8.74194L8.69296 41.1043L8.66847 40.99H8.65214L8.61948 40.841L8.57866 40.7635L8.54601 40.6859L8.51335 40.6145L8.4909 40.59L8.19496 40.3185L7.90922 40.1348C7.599 40.0471 7.3949 40.2736 7.21733 40.4145L7.04589 40.5532L6.70301 40.7022L6.61321 40.79L6.52544 40.8778L6.39482 40.99L6.2295 41.1206C6.05194 41.2084 5.96826 41.3839 5.80702 41.5043L5.73355 41.5819C5.57435 41.7533 5.43556 41.9391 5.27637 42.1166V42.1942H5.2927L5.30086 42.2473L5.41515 42.3962C5.74987 42.482 6.07643 42.3677 6.38462 42.3167L6.73566 42.2473C6.9316 42.1942 6.99691 42.3513 7.12549 42.4207L7.3153 42.6126L7.53368 42.7616L7.54389 42.7963H7.56022C7.70309 43.0085 7.90106 43.1984 8.02556 43.4249L8.10516 43.5718H8.12149L8.13781 43.6249L8.17047 43.6841H8.1868L8.22966 43.8066H8.24394L8.32558 43.9902L8.3664 44.0413L8.70112 44.2168L8.8644 44.1311L8.88073 44.1127L8.88685 44.0331L8.92155 43.6494H8.93788V43.4943H8.92155V43.2228H8.93788V43.1188H8.94604L8.95216 43.0126H8.97053L8.99502 42.8391H9.00319L9.01135 42.7616H9.01951V42.6473L8.96237 42.4983Z" fill="#F9F9F9"/>
<path d="M14.5483 47.8103L14.4911 47.8715L14.2789 47.8348C14.0033 47.6225 13.7952 47.3347 13.5686 47.0694L13.5441 47.0429C13.44 46.9122 13.2033 46.8429 13.0073 46.8694L12.591 46.7816C12.3706 46.7286 12.1991 46.8592 11.995 46.8061L11.9215 46.7041L11.9134 46.6939H11.9215L11.9297 46.5469L11.9869 46.4857L12.0869 46.4061L12.191 46.3265L12.5093 46.0489V46.0305L12.5992 45.9183L12.8441 45.655L12.9992 45.5264C13.138 45.3672 13.3012 45.2468 13.5441 45.1937L13.8217 45.1672L14.0829 45.3958L14.1319 45.457L14.1646 45.5081L14.2462 45.7162H14.2625L14.287 45.7958L14.3115 45.8407L14.3524 45.9265L14.3768 46.0571L14.3932 46.1775C14.4483 46.3714 14.383 46.6755 14.4483 46.8592L14.4748 47H14.4911L14.5136 47.4H14.5238L14.5401 47.6082L14.5646 47.7327L14.5483 47.8103ZM14.8177 47.7409L14.783 47.4L14.7687 47.2347H14.7769L14.7524 47.1204L14.7442 47.0857L14.6707 46.7449H14.6626V46.7041H14.6707V46.4326L14.6524 46.0754H14.6381L14.6218 45.9183L14.5973 45.8571L14.5646 45.7693H14.5483L14.532 45.6632L14.5075 45.6223L14.4748 45.5509H14.4666L14.4422 45.4999L14.3687 45.4203L14.2054 45.2019L13.8625 44.8978L13.6176 44.8447C13.3747 44.7917 13.2686 44.9754 13.0727 45.0284V45.0366L12.8114 45.2284L12.4032 45.6305L12.3624 45.6999V45.7346L12.3297 45.7958L12.2971 45.8571L12.0522 46.153L11.8256 46.3367L11.7175 46.4938L11.6787 46.5714L11.5562 46.7204V46.8429L11.6032 46.9122C11.7338 47.0612 12.0358 47.1388 12.2644 47.0612L12.5502 47.0694L13.0135 47.0857L13.0216 46.9918H13.04L13.0482 47.0694H13.0318L13.0563 47.1388H13.1053L13.4053 47.2429V47.2592L13.5441 47.3837L13.5788 47.4531L13.7176 47.645L13.7482 47.6878L13.8788 47.8633H13.8952L14.034 48.0021L14.4258 48.1144L14.7605 48.0532L14.8177 47.9409H14.834V47.7409H14.8177Z" fill="#F9F9F9"/>
<path d="M40.7089 27.7079L40.717 27.7773L40.7742 28.0916L40.7987 28.1978L40.815 28.3529H40.8313L40.8721 28.5182H40.8885L40.9048 28.6937H40.9211L40.9374 28.7978H40.9538L40.9619 28.8672L41.0354 29.1387H41.0436L41.0517 29.2427L41.0844 29.4428H41.1007L41.117 29.5815H41.3497L41.3436 29.4693H41.3273L41.3211 29.3897L41.2967 29.2427H41.2783L41.2558 29.1387H41.2477L41.215 29.0325L41.1905 28.9203L41.1742 28.7284H41.1579L41.1313 28.6243H41.1252L41.0926 28.51L41.0844 28.3978L41.0599 28.3529L41.0007 28.0488L40.9946 27.9426H40.9783L40.9619 27.8304L40.9374 27.7692L40.9048 27.6834H40.8885L40.8721 27.5691H40.8558L40.8313 27.4446L40.766 27.2895L40.7333 27.1854H40.717L40.6762 27.0548L40.6435 26.9834L40.6109 26.914L40.5701 26.8181H40.5619L40.5211 26.6262H40.5048L40.4639 26.4527L40.4313 26.3548L40.3986 26.2935H40.3823L40.3435 26.1731L40.3088 26.0956L40.2517 25.9466L40.219 25.8588H40.2047L40.1619 25.6751L40.1292 25.5976H40.1129L40.0823 25.4751H40.0659L40.0231 25.3098L39.9904 25.2486L39.9578 25.1792H39.9435L39.9006 25.0567L39.87 24.9444L39.8353 24.8567L39.77 24.6893L39.7394 24.5954L39.6904 24.4709H39.6741L39.6659 24.3852L39.6394 24.2893L39.6006 24.1056H39.5904L39.5659 23.977L39.5435 23.9321L39.5169 23.8546H39.5006L39.4781 23.7219H39.47L39.4516 23.6525L39.4292 23.5301L39.3965 23.4341H39.3781L39.3394 23.3035L39.3047 23.2259L39.174 23.0157L39.0781 22.9035L38.9393 22.7014L38.9557 22.5463L38.9781 22.4402H38.9883L38.9781 22.3279L38.8985 22.134L38.8659 22.0483H38.8495L38.8332 21.9952H38.8169L38.776 21.9177H38.7597L38.7434 21.8646H38.7271L38.6699 21.7605C38.3168 21.285 38.125 20.84 37.8474 20.3563L37.7658 20.189H37.7474L37.6739 20.0686C37.4984 19.8522 37.3392 19.5991 37.1045 19.4481L36.8922 19.2746L36.5983 19.3787L36.6473 19.5195L36.9657 19.7032L37.3086 19.989L37.4637 20.1482L37.6902 20.3747L37.6168 20.4686L37.4964 20.591L37.4474 20.6421L37.4229 20.6706L37.4474 20.7564L37.4719 20.7849L37.8045 20.9054V20.9217H37.8209C38.0433 21.1891 38.2413 21.4789 38.4413 21.7687L38.474 21.8462H38.4903L38.6128 22.0483V22.1442H38.5964L38.5822 22.2585H38.5638L38.474 22.3891L38.4577 22.4055L38.4658 22.4483L38.572 22.6402L38.7516 22.8259L38.7597 22.8504L38.9965 23.1219L39.0373 23.2076H39.0536L39.1353 23.4096L39.174 23.4607L39.2169 23.5913H39.2332L39.2577 23.7137L39.274 23.8444L39.3047 23.9934L39.3475 24.0709L39.3965 24.1668H39.4047L39.4292 24.273H39.4434L39.47 24.4464H39.4618L39.4781 24.5771H39.4945L39.5169 24.6812L39.5435 24.7342L39.5659 24.8567L39.6006 24.9444L39.6475 25.0138L39.6904 25.1179H39.7047L39.7394 25.2649C39.8149 25.4751 39.9292 25.6772 40.017 25.9017L40.0394 26.0425H40.0557L40.0823 26.165L40.1292 26.3548H40.1476L40.1619 26.4772H40.1782L40.219 26.6262H40.2353L40.27 26.7221L40.3007 26.7915L40.3435 26.8895L40.3741 26.9752H40.3905L40.4741 27.1487L40.5211 27.2814L40.5537 27.3589H40.5701L40.6191 27.4977L40.6517 27.5773L40.6925 27.7079H40.7089Z" fill="#F9F9F9"/>
<path d="M15.9185 11.2601V11.3479H15.9021L15.894 11.4254H15.8858L15.8613 11.5111L15.8123 11.5724L15.6736 11.7316L15.3633 11.6254L15.2735 11.5111L15.2266 11.4622L15.1919 11.3744L15.1674 11.3213L15.1347 11.1989H15.1531V11.1111H15.1613L15.1674 10.9193L15.2266 10.8335L15.3062 10.7213L15.6491 10.6396L15.8205 10.807L15.8695 10.9478H15.8858L15.9266 11.1642L15.9348 11.2601H15.9185ZM16.1226 11.058L16.0981 10.8499L16.0654 10.7907L16.0001 10.6927L15.9919 10.6764L15.9185 10.607L15.7878 10.4825C15.6491 10.3968 15.4531 10.4927 15.2735 10.4498L15.1266 10.5621L15.0449 10.6682L14.9653 10.8499H14.9572L14.9306 10.9642H14.9143V11.1376H14.9306L14.9572 11.3744H14.9653L15.0062 11.5642L15.0368 11.652H15.0531L15.1102 11.7826L15.2735 11.8112L15.7797 11.8622L15.8695 11.7907L15.9919 11.6173L16.0246 11.5642V11.5479L16.1144 11.3744H16.1307L16.1226 11.058Z" fill="#F9F9F9"/>
<path d="M29.0635 12.8909V12.8991L28.9329 12.7684L28.8757 12.7174L28.7369 12.5337L28.7288 12.5072L28.4757 12.2705L28.241 12.0725L27.9552 11.8174L27.9062 11.748H27.8899L27.8818 11.7235L27.8328 11.6439L28.1675 11.801C28.4675 12.15 28.741 12.2684 29.0063 12.5582L29.0471 12.6807H29.0635L29.0798 12.8746L29.0635 12.8909ZM28.8675 13.7461L28.7696 13.7216L28.7859 13.6767L28.9165 13.6318L28.9247 13.6481L28.8675 13.7461ZM22.0997 12.7603L22.0486 12.6399L22.2874 12.5501L22.3181 12.7174L22.0997 12.7603ZM20.4914 12.8827L20.4179 12.9868L20.0607 13.2236L19.5301 13.4318C19.2219 13.4828 19.0096 13.6399 18.73 13.7297L18.3218 13.842L17.8667 14.0951L17.7606 14.1543C17.4687 14.2155 17.2054 14.338 16.987 14.4869L16.4809 14.7053C16.0747 14.9788 15.6849 15.2829 15.4032 15.6993L15.2991 15.8115L14.9563 15.6993L14.8644 15.5523L14.8338 15.4809L14.7256 15.3503L14.7113 15.2972H14.695L14.6134 15.1768L14.5399 15.038L14.4991 14.9319L14.4338 14.8115L14.4093 14.7053H14.393L14.3603 14.6176L14.3521 14.5563H14.3358L14.3113 14.4176L14.2868 14.2767H14.2705L14.2623 14.1543L14.2542 13.7461L14.2705 13.6155L14.2542 13.4501V13.144H14.2623L14.2868 13.0399V12.7256H14.2705V12.5154H14.2868L14.2623 12.3317H14.2542L14.2297 12.2031H14.2133V12.0276L14.2705 11.9847L14.4644 11.8867L14.4991 11.8357L14.5481 11.7663V11.6092H14.5726V11.5296H14.5889L14.595 11.3724H14.6052L14.595 11.1908L14.5399 10.9214L14.4256 10.7805L14.2542 10.7193V10.5805H14.2623L14.2705 10.4846H14.2868L14.3032 10.3703H14.3195L14.5154 10.0315L14.5481 9.95395L14.5889 9.90088L14.6603 9.76822L14.7113 9.71515L14.7256 9.62943H14.744L14.7195 9.50697L14.695 9.47227L14.646 9.39472L14.6052 9.30696H14.6134V9.24573H14.6215C14.6052 9.01918 14.6603 8.81916 14.6215 8.60078L14.6379 8.59262L14.6297 8.54771H14.6379L14.6215 8.313H14.6052L14.5889 8.18238H14.5726L14.5399 8.02523L14.5317 7.95583H14.5154L14.4991 7.82317H14.4828L14.4746 7.63336C14.4256 7.44151 14.4583 7.15373 14.4501 6.91698L14.4644 6.6292H14.4746L14.4991 6.55164V6.25366H14.5154L14.5399 6.08018H14.5481V5.93935L14.5807 5.92302L14.646 5.97609C14.7542 6.23937 14.8644 6.50062 15.0134 6.74145L15.0767 6.95984H15.0869L15.1257 7.10067H15.142L15.1767 7.17006L15.1828 7.20679L15.1991 7.32721L15.2073 7.33538H15.1991V7.58846H15.1828L15.1604 7.78235L15.1767 7.79051H15.1604L15.1767 7.79868H15.1604V7.85991H15.1767V7.8844H15.1604V8.05788H15.1522L15.142 8.24361H15.1257L15.142 8.52322H15.1257V8.67834H15.1114L15.1032 9.00081H15.095V9.23756H15.1114L15.1604 9.28859L15.3298 9.13143V9.09878H15.3379V8.90488L15.3645 8.60894V8.53138H15.3726L15.3645 8.29667V8.16401H15.3726L15.3787 7.99665H15.3951L15.4216 7.84154V7.65785H15.4298L15.4379 7.41497H15.4461L15.4379 7.40477H15.4461L15.4685 6.95167H15.4767L15.5032 6.79452V6.72512H15.5175L15.542 6.60266H15.5502L15.5747 6.47205H15.5828L15.6073 6.27203H15.6257V5.99241H15.6073V5.86996H15.6257L15.6175 5.86179H15.6257L15.64 5.73933H15.6563L15.6726 5.59851H15.689L15.7135 5.48625H15.7216L15.7461 5.39236L15.7869 5.35563L15.9339 5.53932L15.9584 5.62708L16.0074 5.70464L16.04 5.76587L16.0808 5.89853H16.089L16.1298 5.97609L16.1543 6.06385L16.1788 6.12508L16.2033 6.28019H16.2115L16.2441 6.35979L16.2686 6.39245L16.3013 6.47205L16.3421 6.60266H16.3584L16.3747 6.70063H16.3911L16.4298 6.80268L16.5135 6.94351L16.5462 7.03944L16.5543 7.11699H16.5707L16.587 7.28435H16.6033L16.6197 7.53539C16.6339 7.80072 16.6482 8.10686 16.8299 8.313L16.9789 8.47016C17.1075 8.61711 17.2381 8.75793 17.483 8.811L17.8259 9.03755L18.0626 9.24573L18.1198 9.35798H18.1361L18.1688 9.41921C18.3075 9.67229 18.379 9.92129 18.5443 10.1438L18.6259 10.2295C19.0913 11.1316 18.9035 10.6846 19.5138 11.303L19.6036 11.4357L19.7587 11.7398H19.7668L19.8077 11.8623L19.8403 11.9847H19.8566L19.8975 12.1419H19.9138L19.9464 12.2113L20.0118 12.3317L20.0362 12.3847L20.0444 12.4113L20.4914 12.6276L20.5342 12.8031L20.4914 12.8827ZM14.148 11.748L14.1072 11.6786L14.0827 11.3724L14.0991 11.2418H14.1072L14.1337 11.1377L14.197 11.0316L14.2705 10.9377L14.3032 10.9826L14.344 11.0316L14.197 11.3112L14.2623 11.401L14.3358 11.4683L14.3766 11.4969L14.3685 11.599H14.3521L14.2787 11.7051L14.148 11.748ZM2.18588 38.2868L2.49611 38.0786C2.7145 37.9459 2.95329 37.8316 3.17167 37.6928L3.3023 37.7826L3.31046 37.8418L3.32679 38.0255L3.36148 38.2786H3.36761V38.5398H3.36148L3.34312 38.8623L3.36148 38.9419H3.36761L3.40026 39.0807L3.40843 39.193H3.42475L3.43292 39.6134L3.46557 39.9624L3.49823 40.2298L3.50639 40.242H3.49823L3.51456 40.2665H3.49823L3.50639 40.2828H3.49823L3.4819 40.4155L3.44108 40.4584L3.38394 40.4502L3.26148 40.2665L3.24515 40.2298L3.12269 40.0032L3.02676 39.891L2.95329 39.7359H2.94308L2.86961 39.6134L2.83083 39.5767C2.76552 39.4399 2.56959 39.4277 2.38794 39.4399C2.16139 39.4644 1.98995 39.5501 1.77769 39.6032L1.50828 39.744L1.10008 39.944L0.98579 39.9175L0.969462 39.8481H0.977627L1.00416 39.6909L1.04294 39.6032L1.07559 39.5501V39.4807L1.12662 39.4277L1.18172 39.2725H1.19193L1.21438 39.193C1.70013 38.5113 1.52461 39.0052 1.95729 38.4786L2.18588 38.2868ZM24.6101 11.7561L24.6366 11.7398L24.7489 11.652H25.0836V11.7051L24.9795 11.7929L24.6101 11.8459V11.7561ZM37.5845 19.5976C37.3825 19.4139 37.1927 19.2138 37.0396 19.0036L36.9314 18.6648L36.809 18.5669L36.762 18.4811L36.7212 18.3077L36.4028 17.8791C36.2089 17.7403 36.1089 17.5056 35.8824 17.3994L35.613 17.181L35.5558 17.0953L35.5783 17.0525L35.6273 16.9708V16.8422L35.2864 16.5708L35.1129 16.3953L34.6823 16.0401C34.4782 15.9422 34.2822 15.8299 34.0373 15.8299C33.8169 15.734 33.5557 15.7075 33.3516 15.5687L32.9209 15.3666L32.5046 15.0992L32.3331 14.9584L32.3086 14.836L32.7658 14.94L33.0434 14.9237L33.0597 14.8115L33.0026 14.7319L32.6433 14.6359L32.2678 14.5829L31.9515 14.338L32.0249 14.2849L32.5556 14.3829L32.7495 14.4176C32.9291 14.4604 33.1087 14.5482 33.3046 14.5237L33.6046 14.4339L33.5638 14.3563C33.1556 14.3216 32.8148 14.1298 32.4229 14.0788L32.0392 13.9277L32.2209 13.8318C32.4556 13.8073 32.6597 13.8849 32.8719 13.8849C33.2638 13.9277 33.6046 14.0583 33.9475 14.2073L34.3721 14.4094L34.5027 14.338V14.1992L34.3965 14.1114L34.0373 13.842C33.8251 13.8849 33.721 13.6685 33.5006 13.7093C33.1658 13.6685 32.8393 13.5624 32.4903 13.5971L32.0821 13.5359L32.0249 13.4583L32.0821 13.4052L32.4148 13.3807C32.5944 13.3522 32.774 13.3522 32.9617 13.3358C33.2393 13.293 33.5638 13.3093 33.8414 13.3624L33.8904 13.3277V13.2399C33.5169 13.0746 33.0924 13.1705 32.6842 13.1338L32.1943 13.1624L32.1454 13.1011L32.5046 12.8991C32.7168 12.7787 32.9944 12.7603 33.1903 12.6031C33.3863 12.5154 33.6128 12.5072 33.8251 12.4909L34.2414 12.1929L34.2741 12.1337L34.3823 11.9317L34.47 11.7847L34.4945 11.6275H34.5027L34.5108 11.5133L34.519 11.4092L34.5435 11.1295L34.5517 10.8499L34.5762 10.8418L34.5517 10.6581L34.5762 10.554V10.205L34.5598 10.1887C34.5517 10.0131 34.5598 9.75189 34.5517 9.52534L34.5925 9.41921L34.5762 9.23756L34.5925 8.91305L34.6088 8.6865L34.6251 8.67834C34.6251 8.45995 34.6333 8.25994 34.6415 8.04972L34.6251 7.95583C34.568 7.65377 34.6149 6.82921 34.5517 6.48225L34.519 6.28836C34.5353 6.0965 34.4863 5.93935 34.5027 5.74749L34.47 5.66994L34.4863 5.47808L34.47 5.46992L34.4537 5.11275L34.4292 5.04336L34.3965 4.98213V4.78008L34.3823 4.77191L34.3557 4.51679L34.2986 4.39637L34.2822 4.22085L34.2578 4.0392L34.2414 3.81266V3.36772L34.2169 3.35956L34.2333 3.34119L34.2169 3.33302L34.2333 3.21056H34.2251L34.2169 2.92279L34.2006 2.91258L34.1863 2.64522C34.0802 2.08599 34.0496 1.5288 33.8659 0.987946L33.7945 0.761395C33.7047 0.559338 33.6945 0.255234 33.5475 0.0878754L33.3863 0.000114441L32.9515 0.0980759L32.9046 0.194004L32.8393 0.263397L32.774 0.375648L32.7087 0.453209L32.6025 0.638939L32.4556 0.934879L32.3168 1.23082L32.2352 1.36961L32.1454 1.53492L32.0902 1.60636L32.0392 1.68391C31.9596 1.89413 31.7861 2.03292 31.6739 2.21661L31.5984 2.34927L31.4371 2.59215C30.8759 3.64733 30.3513 4.7066 29.8064 5.7577L29.7492 5.86179L29.7166 5.96792C29.388 7.41906 28.841 8.36199 28.1675 9.67434L28.1491 9.75189L28.0756 9.87231L28.1165 9.9866L28.1491 10.4764C28.2716 10.6662 28.4594 10.8336 28.5981 11.0071L28.7696 11.2336C28.8492 11.5173 29.1227 11.7561 29.0961 12.0725V12.1664L28.892 12.0643L28.6226 11.8541C28.4675 11.6704 28.241 11.5214 28.0022 11.4255C27.9062 11.3398 27.8246 11.1459 27.6368 11.2336L27.5634 11.3724L27.4899 11.4255L27.3756 11.5745C27.594 11.801 27.9062 11.9582 28.141 12.1664L28.4594 12.446L28.7696 12.795L29.039 12.9787L29.0635 13.0644L29.088 13.1869L29.0635 13.2481L28.9982 13.3011L28.8349 13.2134L28.5083 12.9521L28.2899 12.7521C28.1103 12.6031 27.8899 12.5154 27.7021 12.3684L27.4062 12.4296L27.6021 12.6195C27.7838 12.7787 28.0205 12.8562 28.2063 13.0052L28.2634 13.1175L28.1757 13.1011C27.7981 13.0644 27.4572 12.9276 27.0735 12.8827C26.8858 12.8909 26.747 12.7603 26.551 12.7868C26.3245 12.6644 26.0367 12.7338 25.8102 12.6195L25.7755 12.5786L25.6632 12.5154C25.4101 12.5582 25.1652 12.5501 24.906 12.5684L24.7325 12.5337L24.4407 12.4011L24.455 12.2031C24.4876 11.9663 24.7978 12.1133 24.9203 11.9582C25.1754 11.95 25.3448 11.748 25.5979 11.748L25.6632 11.6173L25.2795 11.5745L25.2958 11.5377L25.3693 11.4683L25.7755 11.3112L25.7367 11.2336L25.5652 11.2602L25.2632 11.3826C25.0448 11.3724 24.855 11.4173 24.6366 11.4255L24.4876 11.3296L24.3264 11.55C24.2713 11.6827 24.4162 11.7582 24.2937 12.0806L24.2447 12.4541L23.9978 12.5154C23.7386 12.5684 23.4773 12.5501 23.2242 12.6113L22.8018 12.6725L22.7263 12.4011L22.7181 12.246L22.7446 12.0725L22.7589 12.0643L22.7446 11.6969L22.7589 11.6439L22.7446 11.5826L22.7589 11.4255L22.8018 11.3479L22.8181 11.2091L22.8324 11.0438L22.8487 10.9214L22.8242 10.8499L22.7834 10.6662L22.7365 10.554L22.7263 10.3274L22.3181 10.056L22.0589 9.85598C21.8772 9.50697 21.9058 9.28654 21.9935 8.91305L22.0262 8.83549L22.0833 8.72324C22.2078 8.3926 22.3323 8.07013 22.4181 7.72928L22.4405 7.58029L22.5405 7.12516H22.5487L22.5569 7.03944L22.5875 6.86595C22.7467 6.34142 22.963 5.85363 23.1365 5.3393L23.1834 5.22501L23.1998 5.13725C23.659 3.84531 24.0325 3.48814 24.7019 2.43499L24.9938 2.07782L25.1897 1.89414L25.2795 1.97986C25.3877 2.36152 25.451 2.75338 25.5244 3.13913L25.5081 3.62897L25.4918 3.63713L25.5408 3.74326C25.5897 4.12492 25.6367 4.50454 25.6551 4.88621L25.6632 5.19031C25.7163 5.43931 25.7367 5.52503 25.7755 5.7924L25.8102 5.88628V6.1414L25.8265 6.14957C25.8102 6.37612 25.8591 6.55164 25.8428 6.77819L25.8591 6.89861L25.8979 7.0129V7.32721L25.8673 7.47416L25.8591 7.69255L25.8428 7.76194L25.8265 7.98032L25.8102 7.99665L25.802 8.20687L25.8102 8.42525L25.8265 8.47832L25.8591 8.55588L25.8755 8.81916L25.8979 8.89672L25.9326 8.97428L25.9489 9.12327L25.9796 9.21103L25.9979 9.58657H25.9898L25.9714 9.76006L25.8265 10.1091C25.6714 10.3091 25.4428 10.5009 25.1407 10.4928L24.7182 10.6948L24.506 10.903L24.4876 11.0234L24.5284 11.0846L24.5366 11.2173L24.6284 11.2704C24.806 11.2173 24.9938 11.1908 25.1754 11.1295L25.4428 11.0765L25.7367 11.0234L25.3203 10.8928L25.1407 10.903L25.1244 10.8499L25.5326 10.6315C25.7122 10.5173 25.8836 10.3968 26.0367 10.2499L26.1204 10.1009C26.2755 9.9417 26.2245 9.58657 26.2184 9.37839V9.2294L26.1939 9.10695L26.1592 8.97428V8.32117L26.1449 8.313L26.102 8.17218V7.64152L26.1286 7.63336V7.44151L26.1449 7.11699L26.1286 7.02106L26.0877 6.89044V6.31489L26.102 6.30672L26.0877 6.22713C26.1306 5.7475 25.9979 5.29236 25.9796 4.82497L25.9632 4.69436C25.8571 4.38412 25.9612 4.28412 25.8428 4.0392L25.8265 3.82898L25.7857 3.70652C25.8102 3.51671 25.7612 3.35955 25.7755 3.15954L25.753 3.00238C25.6897 2.20845 25.5591 2.25131 25.4591 1.68391L25.4183 1.57166L25.0672 1.5635L24.8978 1.75331L24.6284 2.00843L24.6019 2.04109L24.5876 2.13905L24.5366 2.22478L24.4243 2.37376L24.2019 2.73094L24.0325 2.94115C23.7161 3.22281 23.6937 3.56366 23.3794 3.94328L23.363 4.0392L23.3141 4.15145C23.1467 4.71068 22.8508 5.18827 22.7263 5.7128L22.6364 5.89853L22.6222 5.99241L22.5711 6.11487L22.5324 6.1659C22.3548 6.80881 22.1548 6.97004 22.0833 7.71091L22.0589 7.8946L22.0262 7.95583C22.0017 8.47016 21.4874 9.15184 21.6915 9.62943L21.7323 9.73556L21.7813 9.82944L21.8874 10.0131C22.0099 10.2213 22.2793 10.2397 22.467 10.3887L22.6364 10.5295L22.4915 10.8152L22.2446 10.7111C21.9935 10.6662 21.8221 10.4846 21.618 10.3785L21.1527 10.2213L20.9751 10.3009L21.1874 10.4846C21.3833 10.5009 21.569 10.5703 21.6915 10.703L21.52 10.8683L21.3976 11.0234L21.8548 11.052C22.067 11.1132 22.3364 11.0683 22.5058 11.2418L22.467 11.3724L21.9527 11.4173L21.7098 11.5051L21.6751 11.5663L21.9752 11.55L22.4262 11.5663L22.4487 11.748L22.3446 11.8623C22.1405 11.9072 21.9282 11.9317 21.7323 11.9847L21.6751 12.097L21.7894 12.1337L22.263 11.9929L22.4324 12.0357V12.2113L22.2711 12.3847L21.9037 12.5684L21.4486 12.7521L21.1139 12.944L20.9261 12.9603L20.9404 12.7684L20.9567 12.6644L20.9322 12.5501L20.9016 12.4541L20.6649 12.3317L20.2485 12.2541L20.2322 12.1745L20.1995 12.0541L20.0526 11.652L20.0281 11.6092L19.9546 11.4683C19.8811 11.2091 19.6689 11.0602 19.4974 10.8765L19.1872 10.6315C18.6606 9.95599 18.6463 9.62739 18.2096 9.00898L17.8177 8.6518C17.5075 8.53955 17.2054 8.39056 17.0115 8.13748L16.9952 8.02523L16.9789 7.91093L16.938 7.79868L16.9299 7.53539L16.887 7.38844V7.36191L16.9034 7.17822L16.8727 7.0925L16.838 7.02106L16.8074 6.88228L16.7646 6.82921L16.7176 6.65573L16.6768 6.60266L16.6258 6.47205L16.538 6.33326L16.4952 6.19447L16.489 6.08018L16.4401 5.99241L16.3013 5.62708L16.1543 5.37196L16.1135 5.25154L16.0808 5.13725L16.04 5.05969L15.9747 4.876L15.9339 4.80865L15.7563 4.76375L15.64 4.876C15.4277 5.18623 15.3849 6.29243 15.3073 6.56797L15.2257 6.60266L15.1175 6.41285C14.9746 6.09854 14.8726 5.85567 14.7603 5.53932L14.5807 5.30257L14.4501 5.33114L14.4093 5.44339L14.3766 5.61075L14.3521 5.723L14.3195 5.92302L14.2868 6.04548L14.2623 6.45367L14.246 6.46388V6.65573L14.2133 6.82921V7.24761L14.2297 7.25578L14.2133 7.30884V7.65785L14.2297 7.66806L14.246 7.93747C14.3031 8.12932 14.3562 8.31096 14.4093 8.50486L14.3848 8.6865C14.4093 8.91305 14.3603 9.10694 14.3766 9.33349L14.393 9.47227H14.3991V9.73556C13.9215 10.5805 14.0684 10.3417 13.9439 11.052L13.9378 11.3214L13.9113 11.3398L13.9378 11.4765C13.9419 11.7541 14.0052 12.0847 14.0337 12.3847L14.0684 12.5256C14.0684 12.7256 14.0501 12.8378 14.0582 13.0481L14.0337 13.0562L14.0174 13.1869C13.9419 13.595 13.9133 14.0114 14.0684 14.4094L14.1337 14.6972H14.1399L14.1889 14.8809L14.3358 15.2278L14.4256 15.4115L14.5644 15.6646L14.3521 15.9177L14.1725 16.1177L14.0419 16.083L14.0337 16.1095L13.9848 16.083L13.8133 16.2299L13.7725 16.083L13.7909 15.9013L13.6684 15.8299L13.5215 16.0483L13.4296 16.2748L13.3806 16.3708C13.0439 16.63 12.9296 17.1463 12.6642 17.5056L12.5744 17.626L12.5418 17.7239C12.4357 17.9933 12.2907 18.2362 12.1683 18.4975L12.0377 18.7077L11.9805 18.8669L11.9213 18.9444C11.4723 19.6016 11.1968 20.3588 11.0825 21.1671L11.0417 21.2895L11.0253 21.5426H11.0172L11.007 21.6304L10.9927 21.7161L10.96 21.7957L10.9437 22.0222L10.9029 22.0998L10.6498 22.457L10.4212 22.5896L10.111 22.7284C9.71096 22.7978 9.33746 22.955 8.97008 23.0856L8.82313 23.1978C8.56189 23.208 8.43331 23.4081 8.25982 23.5387V23.5652L8.21084 23.6448L8.19655 23.7734L8.13736 23.8877L8.12308 24.1591V24.3245L8.13736 24.4387L8.16186 24.5673L8.15369 24.8041L8.07205 24.9796L7.91898 25.3531L7.86183 25.5878L7.84551 25.6245L7.71488 25.896L7.60671 25.8756L7.33118 25.8838V25.8756L7.09443 25.7633L6.77604 25.8327L6.79236 25.9552L6.90666 26.0164L7.35363 26.147L7.68019 26.3042L7.73121 26.4001L7.77203 26.5573V26.8451L7.75366 26.9247L7.69855 27.0022C7.45364 27.0349 7.22505 27.1063 6.99646 27.1594C6.70256 27.2369 6.45764 27.3859 6.17191 27.4798L5.71473 27.69L5.70861 27.8043L5.75759 27.9268L6.17191 27.8043L6.68011 27.5614C7.00462 27.4716 7.29853 27.29 7.64957 27.2532L7.69855 27.3328L7.72305 27.439L7.69855 27.5696L7.6659 27.6472L7.64957 27.7431L7.60671 27.8125L7.5761 27.9431L7.55977 28.0758L7.52711 28.1349L7.48425 28.2656L7.15974 28.4921L7.03728 28.6676L7.46997 28.6227L7.64957 28.7983L7.6659 28.9901L7.69855 29.0779L7.73121 29.182L7.77203 29.2432L7.78836 29.4248L7.81897 29.5044L7.84551 29.6269L7.87612 29.7045L7.91082 29.8106L7.96796 29.8984L7.92715 30.0208C7.76387 30.0984 7.58426 30.1759 7.38833 30.1943L7.08626 30.3065L6.9638 30.4127L6.93115 30.5515L6.9638 30.778L6.9883 30.8556L6.9638 30.8637L6.79236 31.1005L6.65358 31.3985L6.54132 31.5964L6.31069 31.9128L6.04945 32.0516L5.68411 32.3985L5.56165 32.5659L5.53716 32.6353L5.50451 32.7149L5.45348 32.8006L5.13713 33.0721L5.02284 33.2823C4.9412 33.5333 4.6575 33.6293 4.53505 33.8476C4.47586 34.0395 4.23094 34.0558 4.1493 34.2232C3.93908 34.3538 3.80846 34.5457 3.62069 34.6926L3.31862 34.9294L3.02676 35.0681L3.14718 35.2784L2.96962 35.5233C2.77368 35.6437 2.6349 35.7927 2.51244 35.9682L2.37365 36.1417L2.38794 36.2193L2.45325 36.4376L2.42264 36.4907L2.1267 36.8295L2.03893 36.952L1.90015 37.1785L1.87566 37.301L1.91648 37.3704L1.90015 37.5194L1.72871 37.7622L1.63074 37.9214L1.54094 38.05L1.53277 38.1725L1.49195 38.3296L1.44297 38.4868L1.13478 38.8439L1.06947 38.9419L1.03477 39.0276L0.791897 39.3766L0.700053 39.5869L0.685766 39.6379L0.661275 39.7685L0.62658 39.8563L0.595964 39.9787L0.569431 40.1971L0.561267 40.5094L0.538817 40.5624L0.569431 40.6767L0.365334 40.9298C0.232671 41.3727 0.18981 41.2747 0.0653103 41.5829L0.0959257 41.636C0.234712 41.883 0.134704 42.532 0.00816331 42.7871L0 42.9524L0.0816389 43.0055L0.155115 42.8749L0.18777 42.7177L0.204096 42.5769L0.244917 42.5075L0.277572 42.4136L0.310227 42.2728L0.2939 41.9585L0.326556 41.8625L0.365334 41.7483L0.416358 41.6442L0.522489 41.5054V41.3829L0.512284 41.2707L0.538817 41.1911L0.822513 40.8421L1.00416 40.6502L1.0511 40.5706V40.538L0.912315 40.3012L0.961298 40.2665C1.17356 40.1971 1.36949 40.0563 1.60625 40.04C1.83484 39.9338 2.08792 39.6991 2.36549 39.8481L2.77981 40.1787L2.86961 40.3114L2.90431 40.4053L2.93492 40.4931L3.23698 40.7808L3.53089 40.738L3.67784 40.5012L3.71049 40.3808L3.74315 40.2665L3.78397 40.1706V39.5869L3.75743 39.4277L3.74315 39.3072L3.72682 39.0889H3.71049V37.9214L3.67784 37.8153L3.63702 37.7194L3.62069 37.6336L3.49007 37.3969L3.00023 37.4928L2.91859 37.5643L2.49611 37.7908C2.32263 37.8765 2.20017 38.0602 2.00628 38.0704L2.07975 37.8602L2.14506 37.6847L2.17772 37.554L2.19201 37.3887C2.37365 37.2765 2.50428 37.101 2.69205 36.9887L2.72266 36.9091L2.54509 36.8907L2.42264 36.9173L2.46958 36.8397L2.77981 36.4907C3.01656 36.3764 3.10636 36.1662 3.28597 36.0111L3.35128 35.7662L3.14718 35.7498V35.7049C3.88193 35.0681 3.80438 34.6599 4.89221 33.9619L5.33307 33.517C5.51267 33.5088 5.53716 33.3251 5.67595 33.2619C5.92699 32.9578 6.36172 32.8802 6.6944 32.6353C6.99646 32.4516 7.33934 32.3659 7.69855 32.2965L8.23737 32.1557L8.50474 32.1026L8.52107 32.2965L8.64557 32.3373C8.89661 32.4781 9.19051 32.6006 9.50686 32.5741C9.68851 32.5047 9.98037 32.47 10.1192 32.6169C10.3232 32.67 10.4294 32.8435 10.6498 32.8721L10.9927 32.9863L11.3274 33.2456L11.5948 33.4803C11.7417 33.6476 11.9866 33.7068 12.1173 33.9007L12.4377 34.1089L12.7214 34.266C12.9255 34.362 13.0643 34.5375 13.2847 34.615L13.4561 34.5783L13.35 34.3538L12.9418 34.1436L12.4377 33.8293C12.2234 33.7068 12.0111 33.5599 11.8499 33.4027L11.4642 33.0721L11.0417 32.7659C10.8294 32.7312 10.6416 32.6088 10.4375 32.5475C10.2763 32.4965 10.1457 32.3822 9.96404 32.3475L9.55788 32.3292L9.19867 32.172C9.0109 32.2169 9.00274 32.0067 8.83946 31.9822C8.63536 31.9638 8.41494 31.9373 8.20268 31.9638C7.98429 31.9373 7.83734 32.1475 7.62304 32.0516C7.44547 32.0597 7.29036 32.1475 7.11892 32.1557C6.89033 32.2434 6.68011 32.3292 6.48418 32.47L6.16578 32.6353L5.8229 32.7149L5.83923 32.6006C5.96169 32.3741 6.23109 32.3047 6.40866 32.1108L6.48418 32.1026L6.70256 31.8516L6.73522 31.7454L6.77604 31.6862L6.92299 31.5107L7.14341 31.1882L7.43731 30.9086L7.51079 30.7331L7.62304 30.5678L7.6659 30.4127C7.81897 30.2719 8.05777 30.28 8.24554 30.2106L8.28432 30.1412L8.16186 29.9494L8.23737 29.7126C8.05981 29.0513 7.73325 28.7493 7.81897 27.9084L7.86183 27.8288L7.87612 27.7084L7.91082 27.6125L7.92715 27.5002L7.96796 27.4022V27.2124L8.00062 27.0634L8.03328 26.792L8.07205 26.7063V26.5042L8.03328 26.4001L8.00062 26.2777L8.01491 26.1715L8.0496 26.0062L8.04144 25.9042H8.0496L8.05777 25.798C8.29044 25.3919 8.1639 25.4449 8.31085 25.1531L8.51495 24.9L8.4578 24.7245L8.40677 24.5163L8.38432 24.0612L8.58638 23.5754L8.87212 23.4979L9.23745 23.704C9.47624 23.7489 9.59054 23.9754 9.75382 24.0897L9.79464 24.1591L9.91505 24.3591L9.9722 24.5061L9.94975 24.5428V24.8041L10.0232 24.8837L10.2334 24.8143V24.4551L10.1845 24.3245L10.1457 24.2102L10.0722 24.0714C9.94159 23.9142 9.8028 23.7489 9.6232 23.6346L9.50686 23.5387L9.18234 23.3223L9.50074 23.1203L9.6232 23.1652L9.63748 23.2509C9.82729 23.453 10.0069 23.1121 10.2334 23.1733L10.2906 23.2876V23.3836L10.462 23.3917L11.007 23.4264C11.2376 23.557 10.8784 23.5999 10.9192 23.7571L11.3846 23.9061L11.3601 23.9836L11.3111 24.0612L11.3274 24.1408L11.6029 24.2387L11.6948 24.1591L11.4805 23.951L11.5233 23.7938L11.5376 23.7836L11.5233 23.7244L11.2376 23.3305L11.156 23.2182L10.8866 23.1203L10.6906 22.9631L10.7233 22.7202L11.156 22.3712L11.2764 22.4325L11.3988 22.3876L11.4152 22.3365L11.4335 22.0386L11.4642 21.9875L11.4805 21.8406L11.5233 21.6814L11.5376 21.5528L11.5723 21.4997L11.5948 21.3589L11.6295 21.2732L11.6029 21.1324L11.4805 21.2201L11.4499 21.2977L11.4335 21.4201L11.3988 21.5161L11.3274 21.8304L11.2866 21.9426L11.2764 21.8651L11.3111 21.761V21.5324L11.3274 21.5242L11.3417 21.1671L11.3764 21.063C11.4805 20.6793 11.4784 20.2425 11.7193 19.92L11.8642 19.6404L12.0275 19.2485C12.3622 18.673 12.6928 17.8423 13.0296 17.3035L13.1541 17.0688L13.2602 16.9627L13.252 17.181L13.35 17.2586L13.4459 17.0688L13.5684 16.7728L13.6174 16.6749L13.6766 16.5892L13.799 16.5463L13.9194 16.683L14.1072 16.5973L14.4093 16.2055L14.4419 16.1524L14.4746 16.0748L14.7113 15.8401L15.1767 15.9013L15.1991 15.9422L15.242 16.1095L15.4951 15.9952C15.6257 15.7952 15.8114 15.6381 15.9584 15.4544C16.2196 15.2278 16.44 14.9849 16.7564 14.8115L16.838 14.8278L17.134 14.7829C17.3381 14.5931 17.6483 14.5237 17.8749 14.3747C18.0381 14.2257 18.2912 14.1726 18.4953 14.0686C18.6749 13.9808 18.8872 13.9808 19.0566 13.8951C19.3668 13.8155 19.6036 13.6236 19.8893 13.5277C20.1261 13.4828 20.2975 13.3175 20.5485 13.3277C20.7792 13.2848 20.9914 13.1705 21.2261 13.144C21.4486 13.1175 21.6507 13.0052 21.8711 13.0399L22.1793 12.9603C22.3752 12.8664 22.5977 12.8991 22.8181 12.8746C22.9957 12.8134 23.21 12.8215 23.3957 12.7868C23.6406 12.6991 23.861 12.8562 24.106 12.8297C24.806 12.7521 25.5081 12.8746 26.1673 12.997C26.4367 13.0746 26.747 13.0399 27.0164 13.1256L27.2205 13.1542L27.4572 13.1869L27.5797 13.3522L27.5552 13.442L27.7981 13.6685L27.5062 13.8155L27.4981 13.9032C27.6675 14.0175 27.9144 13.9461 28.1165 13.9645L28.4838 13.989L28.8512 13.9726L28.9737 14.1461L29.1206 14.1726L29.1696 14.0951L29.1859 13.9645L29.2186 13.7624C29.3696 13.3032 29.2962 12.6725 29.3819 12.2541V11.8623C28.3369 9.6376 28.0103 10.8724 29.1125 8.58445L29.1696 8.43546C29.1819 7.99257 29.6207 7.54151 29.6247 7.17822L29.6513 7.0129L29.7084 6.90881L29.7329 6.75166H29.7492L29.7554 6.68022C30.4473 4.58618 31.8882 2.46357 32.9372 0.559338L33.1658 0.255234L33.4822 0.289928L33.5169 0.732822L33.5332 0.740986L33.574 0.889977L33.621 1.00427L33.6557 1.09203L33.6944 1.22266L33.7128 1.37981L33.7434 1.5635L33.7679 1.79821L33.8006 1.92883V2.14722L33.8169 2.16355L33.8414 2.48602H33.8516L33.8659 2.7738C33.921 2.89013 33.9618 3.18811 34.0128 3.26363V3.50039L34.0292 3.50854V4.24942L34.0475 4.26575L34.0618 4.38005L34.0945 4.46781L34.121 4.59026L34.1516 4.80865V5.12092L34.1863 5.20868L34.2088 5.39236L34.2414 5.53115L34.2578 5.7128L34.2986 5.76587L34.2741 5.81689L34.2986 6.01078L34.3067 6.52511L34.3312 6.53327L34.3476 7.0129L34.3721 7.20679H34.3823L34.3639 7.23129C34.3557 7.64356 34.4639 8.07625 34.4292 8.33749L34.421 8.69671L34.3965 8.70487V8.90488L34.3639 9.04571V9.28859L34.3476 9.29675L34.3312 9.58657L34.3476 9.85598V10.354L34.3067 10.4683L34.3312 10.5969V10.8254L34.3067 10.8418V11.1295L34.2986 11.3214L34.2578 11.4255L34.2414 11.599L34.2088 11.7235L34.1516 11.9072C33.9965 12.15 33.6781 12.2378 33.3699 12.246C33.1903 12.2378 33.0679 12.3766 32.9046 12.4011C32.7168 12.4909 32.4964 12.5072 32.2862 12.5582C32.0739 12.6399 31.8943 12.8031 31.778 12.9868L31.7392 13.0828C31.7861 14.1869 31.2473 14.6584 31.2412 15.2462L31.329 15.3258L31.5433 15.1686L31.582 15.0992L31.6167 14.9931L31.9086 15.0707C32.1454 15.1237 32.325 15.2544 32.4964 15.3952C32.8393 15.585 33.1556 15.8401 33.5475 15.934L33.6944 15.9952C33.8822 16.0218 34.0292 16.1279 34.2169 16.1606C34.4619 16.3279 34.7864 16.3953 34.9823 16.6239L34.9599 16.7361L34.6823 16.781L34.5435 16.8851L34.9027 17.0953L35.4742 17.4178C35.7905 17.5219 36.013 17.7566 36.1906 17.9831L36.2314 18.0974L36.1661 18.1342C36.0028 18.0729 35.8232 17.9933 35.6354 18.0117L35.4742 18.124L35.7007 18.2464C36.0191 18.3158 36.3212 18.473 36.5253 18.6812L36.8437 18.9955L37.1355 19.3016L37.356 19.5445L37.5519 19.7629H37.6499L37.5845 19.5976Z" fill="#F9F9F9"/>
<path d="M15.6644 10.9504L15.697 11.0034L15.7052 11.2382L15.7134 11.3769L15.697 11.3953L15.4929 11.4565L15.4195 11.4035L15.3787 11.3157L15.3052 11.0728L15.3644 11.0034V10.9749L15.4521 10.9341L15.6644 10.9504Z" fill="#F9F9F9"/>
</g>
<defs>
<clipPath id="clip0_1_238">
<rect width="100" height="48.1143" fill="white"/>
</clipPath>
</defs>
</svg>
